# This file uses centimeters as units for non-parametric coordinates.

v 88.490208 0.365957 110.493004
v 70.843778 5.257413 112.136215
v 84.558636 11.218490 105.536608
v 92.205782 4.587681 117.918898
v 89.067244 0.380080 112.186788
v 74.365884 4.339073 103.988469
v 86.080712 2.417549 103.595358
v 86.102798 0.388454 108.826804
v 92.219920 6.381437 118.041727
v 82.848738 0.597818 105.722319
v 73.354358 8.857188 122.030292
v 72.359942 1.429702 107.220707
v 93.401449 3.188185 110.011720
v 81.681534 11.932983 107.499195
v 80.795207 0.673680 105.143662
v 93.385866 10.097077 114.916226
v 80.890310 0.373182 107.057155
v 77.829665 9.015007 123.547558
v 78.062953 11.006500 105.117220
v 75.719468 1.982830 103.527871
v 74.317673 6.517448 104.102919
v 93.206044 0.468095 115.786683
v 91.089558 0.430162 113.723434
v 91.669814 0.447568 114.628538
v 93.193614 0.862517 117.154851
v 71.797437 0.405202 119.021544
v 77.987615 1.594318 103.585836
v 84.038234 0.539359 106.364861
v 75.868748 2.901514 124.225069
v 92.553653 2.686536 117.651082
vt 0.362393 0.810016
vt 0.294483 0.789578
vt 0.337703 0.781394
vt 0.428175 0.850637
vt 0.450158 0.922423
vt 0.170732 0.873314
vt 0.163254 0.832294
vt 0.186708 0.812192
vt 0.240183 0.869656
vt 0.221976 0.877866
vt 0.244295 0.839197
vt 0.356462 0.871276
vt 0.147404 0.865302
vt 0.138616 0.897440
vt 0.319208 0.888410
vt 0.327625 0.833399
vt 0.200293 0.798071
vt 0.221681 0.794891
vt 0.435002 0.836672
vt 0.444621 0.855848
vt 0.154188 0.850674
vt 0.179311 0.942532
vt 0.163733 0.981594
vt 0.151047 0.969089
vt 0.148394 0.959942
vt 0.142125 0.924179
vt 0.305408 0.996223
vt 0.173418 0.992596
vt 0.234205 0.964874
vt 0.404026 0.990764
vt 0.392105 0.993992
vt 0.415593 0.976416
vt 0.346603 0.903995
vt 0.188212 0.996578
vt 0.316951 0.911016
vt 0.438800 0.940583
vt 0.448324 0.866862
vt 0.365696 0.998330
vt 0.337553 0.999963
vt 0.203192 0.997784
vt 0.447140 0.896159
vt 0.424559 0.968148
vt 0.416765 0.803049
vt 0.389200 0.787603
vt 0.138615 0.940290
vn -0.827265 0.053333 -0.559275
vn -0.813018 0.045412 -0.580465
vn -0.782376 0.046124 -0.621096
vn 0.004783 -0.999910 -0.012496
vn 0.001052 -0.999999 -0.000684
vn -0.000833 -1.000000 -0.000543
vn 0.065970 -0.473997 -0.878052
vn 0.076834 -0.576364 -0.813573
vn 0.034532 -0.178672 -0.983303
vn -0.020813 0.904558 -0.425843
vn -0.013858 0.858599 -0.512461
vn 0.000239 0.906078 -0.423111
vn -0.000833 -1.000000 -0.000543
vn 0.001052 -0.999999 -0.000684
vn -0.000542 -1.000000 0.000248
vn 0.227932 -0.936885 -0.265128
vn 0.297544 -0.901805 -0.313394
vn 0.233533 -0.937915 -0.256470
vn -0.641763 0.762033 -0.086290
vn -0.648027 0.756326 -0.089621
vn -0.662616 0.743159 -0.093030
vn -0.130866 0.049960 -0.990140
vn -0.123025 0.072033 -0.989786
vn -0.163143 0.049359 -0.985367
vn -0.952394 -0.013598 0.304566
vn -0.982824 0.009631 0.184295
vn -0.974632 0.017034 0.223165
vn 0.002909 -0.979753 -0.200190
vn 0.011643 -0.990855 -0.134430
vn 0.007961 -0.990700 -0.135833
vn 0.122909 -0.762638 -0.635041
vn 0.214624 -0.793023 -0.570133
vn 0.135552 -0.914565 -0.381046
vn 0.016064 -0.999749 0.015615
vn 0.018965 -0.999057 0.039070
vn 0.006988 -0.999809 0.018248
vn 0.016064 -0.999749 0.015615
vn 0.012893 -0.999779 0.016588
vn 0.013875 -0.999900 0.002608
vn 0.934675 0.080601 0.346245
vn 0.944399 0.106197 0.311180
vn 0.965370 0.093743 0.243462
vn 0.113559 -0.983546 0.140502
vn 0.198219 -0.936420 0.289529
vn 0.098814 -0.980750 0.168420
vn 0.422376 -0.416099 0.805270
vn 0.186148 -0.899445 0.395408
vn 0.339283 -0.735403 0.586574
vn 0.612957 0.566740 -0.550536
vn 0.356205 0.902555 -0.241892
vn 0.584619 0.666435 -0.462693
vn -0.004320 0.007898 -0.999959
vn 0.005295 0.005436 -0.999971
vn 0.034532 -0.178672 -0.983303
vn 0.781864 0.012571 0.623322
vn 0.621763 0.004518 0.783192
vn 0.718953 0.070207 0.691504
vn 0.724399 -0.020747 0.689069
vn 0.691822 0.040168 0.720950
vn 0.526212 0.017827 0.850167
vn 0.462267 0.187421 -0.866708
vn 0.537528 0.298962 -0.788470
vn 0.582676 0.313208 -0.749926
vn -0.118417 0.992311 0.036009
vn -0.018484 0.995311 0.094943
vn -0.041205 0.996401 0.074069
vn 0.689156 0.455343 -0.563672
vn 0.679353 0.455255 -0.575520
vn 0.677567 0.463471 -0.571050
vn 0.001052 -0.999999 -0.000684
vn 0.010856 -0.999854 0.013208
vn 0.004647 -0.999968 0.006561
vn 0.060559 -0.986659 -0.151117
vn 0.027090 -0.993827 -0.107582
vn 0.029778 -0.987804 -0.152827
vn 0.418113 -0.016573 0.908244
vn 0.390382 0.002670 0.920649
vn 0.384571 -0.000510 0.923095
vn -0.985912 0.002736 -0.167241
vn -0.945148 -0.204815 -0.254452
vn -0.984829 -0.130703 -0.114141
vn 0.465270 -0.046020 0.883972
vn 0.470046 -0.043330 0.881578
vn 0.457458 -0.042437 0.888218
vn -0.367799 0.179885 0.912341
vn -0.363424 0.215612 0.906330
vn -0.397543 0.227402 0.888959
vn -0.711104 -0.022888 0.702714
vn -0.712320 -0.041204 0.700644
vn -0.726028 -0.029609 0.687027
vn 0.045020 0.332641 -0.941978
vn 0.047146 0.307644 -0.950333
vn 0.070720 0.309089 -0.948400
vn 0.457126 -0.864730 0.208032
vn 0.113559 -0.983546 0.140502
vn 0.125001 -0.991371 0.039484
vn 0.279304 -0.867320 -0.412002
vn 0.233396 -0.879069 -0.415649
vn 0.249869 -0.892108 -0.376442
vn 0.233396 -0.879069 -0.415649
vn 0.279304 -0.867320 -0.412002
vn 0.327929 -0.822561 -0.464604
vn 0.621763 0.004518 0.783192
vn 0.583704 -0.040911 0.810935
vn 0.470046 -0.043330 0.881578
vn 0.020952 -0.999727 0.010314
vn 0.006608 -0.999960 0.006010
vn 0.004046 -0.999987 0.002971
vn 0.019121 -0.999532 0.023886
vn 0.004647 -0.999968 0.006561
vn 0.010856 -0.999854 0.013208
vn 0.051931 -0.992796 -0.107982
vn 0.027090 -0.993827 -0.107582
vn 0.060559 -0.986659 -0.151117
vn -0.686899 0.720660 -0.093908
vn -0.693639 0.714689 -0.089916
vn -0.683263 0.722646 -0.104567
vn 0.012893 -0.999779 0.016588
vn 0.013428 -0.999423 0.031213
vn 0.010856 -0.999854 0.013208
vn 0.063761 -0.992169 -0.107399
vn 0.001052 -0.999999 -0.000684
vn 0.004783 -0.999910 -0.012496
vn 0.014559 0.990630 0.135798
vn -0.003183 0.987343 0.158570
vn 0.061774 0.985943 0.155243
vn 0.227932 -0.936885 -0.265128
vn 0.154239 -0.947935 -0.278621
vn 0.214429 -0.912410 -0.348610
vn 0.465270 -0.046020 0.883972
vn 0.462845 -0.061399 0.884310
vn 0.467438 -0.080851 0.880321
vn 0.001967 -0.762106 -0.647449
vn -0.022464 -0.845369 -0.533710
vn -0.055694 -0.787784 -0.613429
vn 0.457458 -0.042437 0.888218
vn 0.453440 -0.044437 0.890178
vn 0.418113 -0.016573 0.908244
vn -0.053717 -0.425875 -0.903186
vn -0.089163 0.034947 -0.995404
vn -0.050615 0.045563 -0.997678
vn -0.053717 -0.425875 -0.903186
vn -0.144432 -0.588832 -0.795246
vn -0.089163 0.034947 -0.995404
vn 0.012893 -0.999779 0.016588
vn 0.016064 -0.999749 0.015615
vn 0.006988 -0.999809 0.018248
vn 0.011869 -0.999876 0.010300
vn 0.013875 -0.999900 0.002608
vn 0.012893 -0.999779 0.016588
vn -0.127769 0.077498 -0.988772
vn -0.144432 -0.588832 -0.795246
vn -0.230495 0.028176 -0.972665
vn 0.027480 0.099889 -0.994619
vn 0.041502 0.171470 -0.984315
vn 0.086073 0.056916 -0.994662
vn 0.002909 -0.979753 -0.200190
vn 0.007961 -0.990700 -0.135833
vn -0.020278 -0.997086 -0.073535
vn 0.987039 0.020777 0.159130
vn 0.994337 -0.004719 0.106172
vn 0.992289 0.041880 0.116656
vn -0.891166 0.123151 -0.436643
vn -0.907669 0.162565 -0.386922
vn -0.891109 0.163022 -0.423495
vn 0.029462 0.990955 0.130922
vn 0.044746 0.989343 0.138556
vn 0.030694 0.989142 0.143723
s off
f 12/1/1 21/2/2 6/3/3
f 17/4/4 1/5/5 12/1/6
f 7/6/7 15/7/8 27/8/9
f 14/9/10 3/10/11 19/11/12
f 12/1/13 1/5/14 26/12/15
f 28/13/16 7/6/17 8/14/18
f 11/15/19 19/11/20 2/16/21
f 21/2/22 20/17/23 6/18/24
f 11/15/25 2/16/26 26/12/27
f 15/19/28 10/20/29 17/4/30
f 15/7/31 7/6/32 10/21/33
f 13/22/34 22/23/35 24/24/36
f 13/22/37 23/25/38 1/26/39
f 9/27/40 25/28/41 16/29/42
f 22/30/43 25/31/44 24/32/45
f 29/33/46 24/32/47 25/31/48
f 3/10/49 14/9/50 16/29/51
f 21/2/52 7/6/53 27/8/54
f 9/27/55 30/34/56 25/28/57
f 9/27/58 16/29/59 18/35/60
f 7/6/61 3/10/62 13/22/63
f 19/11/64 11/15/65 14/9/66
f 13/22/67 3/10/68 16/29/69
f 1/5/70 5/36/71 26/12/72
f 28/37/73 17/4/74 10/20/75
f 9/27/76 18/35/77 29/33/78
f 2/16/79 12/1/80 26/12/81
f 30/38/82 4/39/83 29/33/84
f 29/33/85 18/35/86 11/15/87
f 29/33/88 11/15/89 26/12/90
f 19/11/91 3/10/92 21/2/93
f 25/28/94 22/23/95 13/22/96
f 8/14/97 13/22/98 1/26/99
f 13/22/100 8/14/101 7/6/102
f 30/34/103 9/27/104 4/40/105
f 24/32/106 29/33/107 26/12/108
f 24/32/109 26/12/110 5/36/111
f 8/41/112 17/4/113 28/37/114
f 19/11/115 21/2/116 2/16/117
f 23/42/118 24/32/119 5/36/120
f 8/41/121 1/5/122 17/4/123
f 14/9/124 18/35/125 16/29/126
f 28/13/127 10/21/128 7/6/129
f 30/38/130 29/33/131 25/31/132
f 27/43/133 15/19/134 12/1/135
f 29/33/136 4/39/137 9/27/138
f 27/8/139 20/17/140 21/2/141
f 27/43/142 12/1/143 20/44/144
f 23/25/145 13/22/146 24/24/147
f 5/45/148 1/26/149 23/25/150
f 20/44/151 12/1/152 6/3/153
f 21/2/154 3/10/155 7/6/156
f 15/19/157 17/4/158 12/1/159
f 25/28/160 13/22/161 16/29/162
f 12/1/163 2/16/164 21/2/165
f 11/15/166 18/35/167 14/9/168
