# This file uses centimeters as units for non-parametric coordinates.

v 81.166970 12.215927 84.684228
v 82.647891 9.132973 91.870385
v 79.884130 13.245549 81.301091
v 82.975048 15.374942 74.266992
v 77.074268 15.304628 74.513792
v 96.195959 2.792317 76.389851
v 79.135038 1.978824 69.097951
v 77.861275 15.127253 75.117913
v 98.815572 9.393601 90.528823
v 83.411597 5.258020 66.405134
v 76.090377 4.705499 81.473836
v 89.007473 5.556415 94.514923
v 80.897568 12.383746 69.092039
v 74.352814 6.333587 76.631890
v 76.591879 12.996186 79.468058
v 88.209415 1.777737 69.190070
v 76.889043 1.373707 76.543545
v 99.823305 10.962738 78.306139
v 90.786121 14.199472 70.382369
v 92.843575 0.283527 86.514474
v 82.892622 0.364808 70.034578
v 78.480250 15.404384 73.712138
v 87.430010 14.640283 71.164974
v 85.228302 15.101193 72.090937
v 81.941893 15.263889 72.727724
v 88.795401 14.146860 70.276618
v 81.423737 15.345746 73.417066
v 89.149594 1.170567 92.431809
v 97.126811 2.956901 87.236983
vt 0.874687 0.775562
vt 0.862461 0.795859
vt 0.829746 0.746656
vt 0.998256 0.710778
vt 0.954747 0.648890
vt 0.993930 0.652392
vt 0.746555 0.778617
vt 0.779077 0.766204
vt 0.773285 0.798024
vt 0.868325 0.713878
vt 0.904630 0.762212
vt 0.895298 0.634620
vt 0.831535 0.652227
vt 0.712876 0.717778
vt 0.728824 0.699570
vt 0.703712 0.794306
vt 0.999999 0.747647
vt 0.870384 0.635127
vt 0.757560 0.811538
vt 0.938829 0.847593
vt 0.911849 0.818758
vt 0.927500 0.636245
vt 0.887292 0.820507
vt 0.810821 0.878370
vt 0.998785 0.647761
vt 0.766336 0.914018
vt 0.861385 0.944177
vt 0.797627 0.939077
vt 0.785147 0.847242
vt 0.669522 0.789878
vt 0.667795 0.801666
vt 0.702368 0.881900
vt 0.766009 0.868750
vt 0.965082 0.642330
vt 0.987677 0.643102
vt 0.959644 0.637868
vt 0.680283 0.842878
vt 0.692940 0.745205
vt 0.710904 0.897841
vn 0.689019 -0.724182 -0.028521
vn 0.676295 -0.736477 -0.015063
vn 0.696247 -0.717680 -0.013252
vn -0.000646 0.956563 0.291526
vn 0.000816 0.957533 0.288322
vn -0.000794 0.957086 0.289803
vn 0.019675 -0.896910 -0.441775
vn 0.112181 -0.900573 -0.419980
vn 0.046200 -0.927924 -0.369894
vn 0.901568 0.293787 0.317592
vn 0.819722 0.362986 0.443054
vn 0.884084 0.194115 0.425105
vn 0.641540 -0.501733 -0.580251
vn 0.663179 -0.429517 -0.612951
vn 0.667534 -0.527671 -0.525321
vn 0.004338 0.958150 0.286233
vn 0.028296 0.971272 0.236284
vn 0.030272 0.981872 0.187111
vn 0.055968 0.996166 -0.067245
vn 0.059092 0.996822 -0.053427
vn 0.077302 0.996127 -0.041904
vn 0.004264 0.878813 -0.477147
vn 0.000655 0.870061 -0.492943
vn -0.004234 0.869173 -0.494490
vn -0.000348 0.956658 0.291213
vn 0.000621 0.956966 0.290198
vn -0.000646 0.956563 0.291526
vn 0.223452 -0.966999 -0.122401
vn 0.219143 -0.963351 -0.154696
vn 0.248863 -0.950822 -0.184403
vn 0.000655 0.870061 -0.492943
vn 0.005021 0.905919 -0.423421
vn 0.003514 0.894806 -0.446442
vn -0.189262 -0.771673 -0.607208
vn -0.203157 -0.857353 -0.472940
vn -0.301963 -0.674568 -0.673630
vn 0.002444 0.642826 0.766008
vn 0.002172 0.636749 0.771068
vn 0.045715 0.572911 0.818342
vn 0.097629 0.995025 -0.019827
vn 0.097010 0.990091 -0.101537
vn 0.079056 0.991896 -0.099456
vn 0.450184 -0.190919 0.872287
vn 0.459966 -0.273033 0.844917
vn 0.438708 -0.194051 0.877428
vn 0.595675 -0.193126 -0.779662
vn 0.578716 -0.172971 -0.796975
vn 0.545074 -0.166859 -0.821616
vn -0.750047 -0.400541 0.526304
vn -0.742701 -0.409450 0.529855
vn -0.747766 -0.418201 0.515707
vn -0.009217 0.966424 0.256788
vn -0.000794 0.957086 0.289803
vn 0.000816 0.957533 0.288322
vn -0.393955 0.839774 0.373603
vn -0.297089 0.892109 0.340412
vn -0.359014 0.846337 0.393474
vn 0.141245 0.979687 0.142346
vn 0.161218 0.983854 0.077719
vn 0.134784 0.988992 0.061052
vn -0.153433 -0.987112 0.045479
vn -0.171545 -0.983538 0.056792
vn -0.134709 -0.990620 0.022913
vn 0.028193 0.994722 -0.098659
vn 0.005571 0.999247 -0.038402
vn 0.015361 0.999313 -0.033737
vn -0.939448 0.333092 0.080545
vn -0.958049 0.261971 0.116250
vn -0.935297 0.278140 0.218764
vn -0.275167 0.901020 0.335329
vn -0.383353 0.854292 0.351035
vn -0.289527 0.894860 0.339704
vn 0.015361 0.999313 -0.033737
vn 0.000346 0.999333 0.036529
vn -0.002595 0.995832 0.091167
vn -0.972609 0.157604 -0.170860
vn -0.951524 0.093942 -0.292878
vn -0.970440 0.132644 -0.201623
vn -0.000348 0.956658 0.291213
vn 0.000399 0.956687 0.291118
vn 0.000621 0.956966 0.290198
vn -0.662239 0.149092 -0.734310
vn -0.658732 0.109350 -0.744389
vn -0.646590 0.127145 -0.752167
vn 0.484934 -0.867398 0.111625
vn 0.393644 -0.867172 0.305052
vn 0.414081 -0.896994 0.154724
vn 0.023253 0.995252 -0.094516
vn 0.056651 0.994632 -0.086585
vn 0.030681 0.993570 -0.108986
vn -0.281473 -0.956539 -0.076192
vn -0.309126 -0.946279 -0.094849
vn -0.251033 -0.964953 -0.076471
vn -0.845283 -0.018191 0.534010
vn -0.839027 -0.041303 0.542520
vn -0.829221 -0.092992 0.551131
vn -0.806443 -0.544248 0.231179
vn -0.857399 -0.505100 0.098700
vn -0.872598 -0.477034 0.104934
vn -0.009321 0.761591 -0.647990
vn -0.019528 0.632470 -0.774339
vn -0.158743 0.655376 -0.738433
vn 0.090243 0.716648 -0.691572
vn 0.074571 0.646869 -0.758946
vn 0.030864 0.782893 -0.621390
vn -0.697024 -0.118715 0.707152
vn -0.656664 -0.453837 0.602349
vn -0.500888 -0.327188 0.801286
vn -0.707586 0.217094 -0.672452
vn -0.751064 0.268613 -0.603117
vn -0.670615 0.234974 -0.703607
vn 0.447740 -0.851606 -0.272575
vn 0.405259 -0.903098 -0.142055
vn 0.271434 -0.946634 -0.173802
vn 0.005571 0.999247 -0.038402
vn 0.000346 0.999333 0.036529
vn 0.015361 0.999313 -0.033737
vn 0.004264 0.878813 -0.477147
vn 0.000828 0.891441 -0.453135
vn 0.017980 0.899590 -0.436365
vn 0.064084 0.960792 -0.269762
vn 0.028984 0.916682 -0.398566
vn 0.017980 0.899590 -0.436365
vn -0.042189 -0.999078 0.007898
vn -0.055510 -0.998441 0.005836
vn -0.061464 -0.997972 0.016526
vn -0.002595 0.995832 0.091167
vn -0.017909 0.994943 0.098830
vn -0.009217 0.966424 0.256788
vn -0.017909 0.994943 0.098830
vn -0.176957 0.981374 0.074771
vn -0.009217 0.966424 0.256788
vn 0.524505 -0.157407 -0.836730
vn 0.533603 -0.146297 -0.832985
vn 0.565674 -0.170458 -0.806819
vn -0.935297 0.278140 0.218764
vn -0.930253 0.107662 0.350768
vn -0.889019 0.109218 0.444653
vn 0.893806 -0.428451 -0.132438
vn 0.890058 -0.437639 -0.127552
vn 0.897346 -0.425325 -0.117766
vn -0.805267 -0.506636 -0.308002
vn -0.814343 -0.485168 -0.318523
vn -0.794223 -0.509514 -0.331068
vn -0.000970 0.946258 0.323412
vn -0.005223 0.680216 0.732993
vn 0.000118 0.847880 0.530189
vn -0.404836 -0.883584 0.235345
vn -0.482236 -0.839564 0.250161
vn -0.449826 -0.863142 0.229437
vn -0.000646 0.956563 0.291526
vn -0.000794 0.957086 0.289803
vn -0.022937 0.953910 0.299216
vn 0.056651 0.994632 -0.086585
vn 0.079056 0.991896 -0.099456
vn 0.030681 0.993570 -0.108986
vn 0.464029 -0.423368 0.778098
vn 0.488977 -0.498366 0.715914
vn 0.534649 -0.461218 0.708116
vn -0.089947 0.838344 0.537670
vn -0.000970 0.946258 0.323412
vn -0.052615 0.941380 0.333220
s off
f 29/1/1 20/2/2 6/3/3
f 3/4/4 4/5/5 8/6/6
f 10/7/7 16/8/8 21/9/9
f 18/10/10 9/11/11 29/1/12
f 16/8/13 18/10/14 6/3/15
f 9/11/16 18/10/17 4/5/18
f 23/12/19 4/5/20 19/13/21
f 23/14/22 26/15/23 13/16/24
f 1/17/25 4/5/26 3/4/27
f 20/2/28 21/9/29 16/8/30
f 26/18/31 23/12/32 19/13/33
f 10/7/34 21/9/35 7/19/36
f 2/20/37 12/21/38 9/11/39
f 4/5/40 23/12/41 24/22/42
f 12/21/43 28/23/44 9/11/45
f 18/10/46 16/8/47 19/13/48
f 2/20/49 11/24/50 28/23/51
f 5/25/52 8/6/53 4/5/54
f 15/26/55 1/27/56 3/28/57
f 4/5/58 18/10/59 19/13/60
f 28/23/61 17/29/62 21/9/63
f 25/30/64 13/16/65 27/31/66
f 5/32/67 14/33/68 15/26/69
f 5/32/70 15/26/71 3/28/72
f 27/34/73 22/35/74 4/5/75
f 5/32/76 13/16/77 14/33/78
f 1/17/79 9/11/80 4/5/81
f 7/19/82 13/16/83 10/7/84
f 29/1/85 28/23/86 20/2/87
f 27/34/88 4/5/89 25/36/90
f 17/29/91 7/19/92 21/9/93
f 15/26/94 11/24/95 2/20/96
f 11/24/97 14/33/98 17/29/99
f 26/15/100 10/7/101 13/16/102
f 19/13/103 10/7/104 26/15/105
f 2/20/106 28/23/107 12/21/108
f 13/16/109 7/19/110 14/33/111
f 6/3/112 20/2/113 16/8/114
f 13/16/115 22/37/116 27/31/117
f 23/14/118 13/16/119 25/30/120
f 24/38/121 23/14/122 25/30/123
f 20/2/124 28/23/125 21/9/126
f 4/5/127 22/35/128 5/25/129
f 22/37/130 13/16/131 5/32/132
f 19/13/133 16/8/134 10/7/135
f 15/26/136 14/33/137 11/24/138
f 18/10/139 29/1/140 6/3/141
f 17/29/142 14/33/143 7/19/144
f 1/27/145 2/20/146 9/11/147
f 28/23/148 11/24/149 17/29/150
f 3/28/151 8/39/152 5/32/153
f 4/5/154 24/22/155 25/36/156
f 28/23/157 29/1/158 9/11/159
f 2/20/160 1/27/161 15/26/162
